<svg width="120" height="48" fill="none" xmlns="http://www.w3.org/2000/svg"><path fill-rule="evenodd" clip-rule="evenodd" d="M37.601 36.68c0 1.416-.286 2.818-.842 4.127a10.772 10.772 0 0 1-2.398 3.5 11.084 11.084 0 0 1-3.588 2.337c-1.342.542-2.78.82-4.233.82H0V36.68c0-1.416.286-2.819.841-4.128a10.773 10.773 0 0 1 2.397-3.5 11.083 11.083 0 0 1 3.588-2.338 11.304 11.304 0 0 1 4.233-.821h15.484a11.205 11.205 0 0 1 7.819 3.16A10.654 10.654 0 0 1 37.6 36.68" fill="#0836F0"/><path fill-rule="evenodd" clip-rule="evenodd" d="M10.505 34.518c.29 0 .578.056.847.164.268.108.512.267.717.468.205.2.368.438.48.7a2.11 2.11 0 0 1-.48 2.35 2.259 2.259 0 0 1-3.128 0 2.13 2.13 0 0 1-.648-1.526c0-.572.233-1.12.648-1.525a2.24 2.24 0 0 1 1.564-.631Zm8.295 0c.586 0 1.149.227 1.564.631.414.405.648.953.648 1.526a2.13 2.13 0 0 1-.648 1.525 2.24 2.24 0 0 1-1.564.632 2.24 2.24 0 0 1-1.564-.632 2.13 2.13 0 0 1-.648-1.525c0-.572.233-1.121.648-1.526a2.24 2.24 0 0 1 1.564-.631Zm8.294 0c.587 0 1.15.227 1.564.631.415.405.648.953.648 1.526a2.13 2.13 0 0 1-.648 1.525 2.24 2.24 0 0 1-1.564.632 2.24 2.24 0 0 1-1.564-.632 2.13 2.13 0 0 1-.648-1.525c0-.572.234-1.121.648-1.526a2.24 2.24 0 0 1 1.564-.631" fill="#fff"/><path fill-rule="evenodd" clip-rule="evenodd" d="M7.742 4.314H0V0h19.905v4.314h-7.738V21.57H7.743V4.314ZM42.026 0h4.423v17.256h13.27v4.314H42.026V0Zm21.006 25.888h4.423v17.257h13.27v4.314H63.032v-21.57ZM81.839 0h-5.53l-8.846 8.628V0H63.04v21.57h4.423v-8.628l8.847 8.628h5.529l-11.06-10.786L81.84 0Zm30.338 48a13.514 13.514 0 0 1-8.992-3.396l2.573-3.157a9.985 9.985 0 0 0 6.514 2.63c2.09 0 3.387-.895 3.387-2.342 0-1.526-.983-2.186-4.58-3.131-4.81-1.257-7.098-2.573-7.098-6.65 0-3.981 2.992-6.612 7.446-6.612 2.858-.04 5.637.909 7.844 2.679l-2.266 3.363a10.041 10.041 0 0 0-5.641-2.12c-1.847 0-3.046.855-3.046 2.177 0 1.71 1.044 2.219 4.898 3.227 4.189 1.118 6.784 2.599 6.784 6.523-.003 4.227-2.998 6.809-7.823 6.809ZM25.989 11.865l2.765-7.01 2.766 7.01h-5.53Zm-8.296 9.708h4.424l2.212-5.393h8.846l2.212 5.393h4.423L30.964.003H26.54l-8.846 21.57Zm34.285 15.102H46.45v-6.472h5.53a3.358 3.358 0 0 1 2.287.978c.602.604.94 1.414.94 2.257 0 .843-.338 1.653-.94 2.257a3.358 3.358 0 0 1-2.288.979Zm0-10.787h-9.952v21.57h4.423v-6.464h5.53a7.914 7.914 0 0 0 2.963-.575 7.759 7.759 0 0 0 2.511-1.637 7.54 7.54 0 0 0 1.679-2.45c.389-.916.589-1.899.589-2.89a7.458 7.458 0 0 0-2.268-5.34 7.843 7.843 0 0 0-5.475-2.211v-.003Zm44.237 0v12.943a4.793 4.793 0 0 1-1.458 3.431 5.04 5.04 0 0 1-3.519 1.422 5.04 5.04 0 0 1-3.518-1.421 4.793 4.793 0 0 1-1.458-3.432V25.888H81.84v12.943c0 1.204.243 2.396.715 3.508a9.157 9.157 0 0 0 2.038 2.974 9.42 9.42 0 0 0 3.05 1.988 9.608 9.608 0 0 0 7.195 0 9.421 9.421 0 0 0 3.05-1.988 9.156 9.156 0 0 0 2.037-2.974 8.977 8.977 0 0 0 .715-3.508V25.888h-4.424Z" fill="#000"/><path fill-rule="evenodd" clip-rule="evenodd" d="M81.84 10.785c0 1.417.286 2.82.841 4.128a10.773 10.773 0 0 0 2.397 3.5 11.082 11.082 0 0 0 3.588 2.338c1.342.543 2.78.822 4.232.822h26.541V10.785A10.658 10.658 0 0 0 116.2 3.16 11.205 11.205 0 0 0 108.381 0H92.9a11.204 11.204 0 0 0-7.82 3.16 10.653 10.653 0 0 0-3.239 7.625" fill="#00F898"/><path fill-rule="evenodd" clip-rule="evenodd" d="M93.563 12.08h5.75v5.61h2.654v-5.608h5.75V9.49h-5.75V3.882h-2.654v5.609h-5.75v2.59Z" fill="#fff"/></svg>